<?xml version="1.0" encoding="UTF-8"?>
<svg width="169px" height="225px" viewBox="0 0 169 225" version="1.1" xmlns="http://www.w3.org/2000/svg" xmlns:xlink="http://www.w3.org/1999/xlink">
    <!-- Generator: Sketch 61.2 (89653) - https://sketch.com -->
    <title>Group 2</title>
    <desc>Created with Sketch.</desc>
    <g id="Pages" stroke="none" stroke-width="1" fill="none" fill-rule="evenodd">
        <g id="Home-(m)" transform="translate(-77.000000, -178.000000)">
            <g id="Group-2" transform="translate(42.000000, 179.000000)">
                <text id="APRIL-25,-2020" font-family="ProximaNova-Medium, Proxima Nova" font-size="10" font-weight="400" letter-spacing="1.42857143" fill="#222222">
                    <tspan x="74.035" y="222">APRIL 25, 2020</tspan>
                </text>
                <text id="ANNA-&amp;-JONATHAN" font-family="AGaramondPro-SemiboldItalic, Adobe Garamond Pro" font-size="15" font-style="italic" font-weight="500" letter-spacing="1.35" fill="#222222">
                    <tspan x="36.2125" y="195">ANNA  &amp;  JONATHAN</tspan>
                </text>
                <g id="Group-53" transform="translate(97.000000, 0.000000)" stroke="#222222" stroke-width="0.5">
                    <path d="M37.8680952,8.53157714 C37.8118813,8.55939454 37.7536598,8.58025759 37.6924269,8.5941663 C35.8343582,9.01440774 36.3533325,3.66651242 36.2910957,2.52897942 C36.2609812,1.97561184 36.2348819,1.40038773 36.4456838,0.886759294 C36.655482,0.372137378 37.1754602,-0.0630062505 37.7315758,0.00753073028 C38.5386462,0.110852505 38.8558529,1.09340284 38.9301355,1.89712703 C39.1228688,3.99436036 38.9040363,5.89985232 38.4312376,7.92654867 C37.8008393,10.6218561 38.0859239,13.4771136 38.0277024,16.2588537 C37.8901792,22.746269 37.420392,29.2267299 36.6233598,35.6664582 C35.0302992,48.5469083 32.1282589,61.2693953 27.9593991,73.5746213 C27.5849747,74.6813564 27.1995082,75.7851112 26.8040036,76.8858855 C22.0639709,90.072327 15.8834581,102.717323 11.1243529,115.89681 C6.36424382,129.07729 3.01751171,143.057521 4.26124329,157" id="Stroke-1"></path>
                    <path d="M40.2934972,14.6952544 C40.4884091,14.3856928 40.7348262,14.0561933 41.0872835,14.005824 C41.5225531,13.944961 41.9103571,14.3710017 41.9820605,14.8222271 C42.0547737,15.2724031 41.8941986,15.7246779 41.7204947,16.1444224 C41.1781751,17.4508773 39.5512161,21.1446292 38,20.9956199 C38.0656439,18.8349849 39.1674517,16.480218 40.2934972,14.6952544 Z" id="Stroke-3"></path>
                    <path d="M42.0574963,21.6241856 C42.3793227,21.2845383 42.8149784,20.923663 43.3034095,21.0141125 C43.9346445,21.1313278 44.0909011,21.8853818 43.954306,22.4474613 C43.6531758,23.6989879 42.6463041,24.7050086 41.6766856,25.6491913 C40.2476108,27.0391612 39.482885,28.6561779 38,30 C38.6188173,28.7300143 38,28.1540905 39.0016976,25.9445368 C39.7198569,24.3607465 40.8198616,22.9273977 42.0574963,21.6241856 Z" id="Stroke-5"></path>
                    <path d="M35.052819,12.3731765 C34.8184361,11.7083551 34.4127734,10.9178982 33.7979691,11.00689 C33.4689315,11.0550503 33.2029971,11.3722801 33.0894115,11.7334822 C32.9749245,12.0946844 32.9875451,12.4935773 33.0326188,12.8746718 C33.4328726,16.2762541 36.0949214,18.7334759 37,22 C36.6195785,20.6096333 37.2082402,18.9114596 36.8305231,17.4551342 C36.3806883,15.7265986 35.6423822,14.0441293 35.052819,12.3731765 Z" id="Stroke-7"></path>
                    <path d="M34.7676261,22.7006713 C34.5545658,22.1907219 34.3052588,21.6759066 33.900356,21.3343184 C33.4963372,20.991757 32.8995917,20.8671892 32.4752394,21.1776355 C32.0305535,21.5017063 31.9156248,22.1926683 32.0570756,22.7590624 C32.1967582,23.3244834 32.5362401,23.8003713 32.8518521,24.2733396 C34.2539829,26.3131371 35.1804855,28.6137484 35.9673055,31 C36.0919589,28.0853085 35.8948119,25.4012619 34.7676261,22.7006713 Z" id="Stroke-9"></path>
                    <path d="M35,40.9974231 C36.5216006,37.9247862 38.5114692,35.6568398 40.2753147,32.6972999 C40.7652117,31.8745938 41.4789689,30.9417933 42.4922879,31.0028457 C43.4212537,31.0588938 44.0430876,32.0107106 43.9976667,32.8704485 C43.9522458,33.7311872 43.4299053,34.5008477 42.9075648,35.2134593 C40.5445958,38.4402285 37.9966989,41.2606491 35,44 L35,40.9974231" id="Stroke-11"></path>
                    <path d="M35,42 C34.7906102,39.6845617 33.3107197,37.6045038 32.1656506,35.5980671 C31.01957,33.5905935 29.7713233,31.6017845 29.1623731,29.3620412 C29.0298607,28.8757266 28.9287062,28.3551936 29.0642533,27.868879 C29.2008118,27.3836013 29.6428571,26.9532803 30.1334564,27.0040893 C30.5451553,27.045566 30.8577227,27.3908597 31.1176898,27.7195628 C33.4958324,30.7307732 34.6135898,33.9981024 35,37.8523273 L35,42 Z" id="Stroke-13"></path>
                    <path d="M39.6440031,42.8958859 C40.6847331,41.743821 41.8302151,40.5859522 43.3093514,40.1071343 C43.8990661,39.9165744 44.7118636,39.9397898 44.9446457,40.5124367 C45.1570594,41.0328489 44.7176832,41.5726073 44.3132242,41.9643674 C42.4771554,43.7461504 40.6401165,45.5279334 38.8040476,47.3097165 C38.1066712,47.9858654 36.8457681,49.2095112 35,51 C35.3394739,49.5867617 35.4248274,48.0371328 36.3200685,46.8763621 C37.3763174,45.50762 38.4849422,44.1785375 39.6440031,42.8958859 Z" id="Stroke-15"></path>
                    <path d="M31.9236432,60.424056 C32.2035668,59.2489412 33.0601122,58.2722728 33.9145607,57.3666173 C36.1015296,55.0484892 38.4541463,52.8646043 40.9503941,50.8334455 C41.579436,50.3217647 42.4139649,49.7857645 43.1855896,50.0873254 C43.8146315,50.3324653 44.0798775,51.0639937 43.9792308,51.6904623 C43.8135831,52.7060417 42.9413117,53.477454 42.1277508,54.175908 C38.1815614,57.564091 34.4618271,61.1808767 31,65 C31.4403293,63.1799338 31.8796102,61.3608405 32.3188911,59.5407743" id="Stroke-17"></path>
                    <path d="M30.9886584,38.6303628 C30.7661471,38.2249746 30.5279026,37.8176184 30.1682882,37.4978339 C29.8075501,37.1780495 29.2995948,36.9546923 28.789392,37.0078258 C27.9139558,37.0983494 27.3970102,37.9189654 27.1947271,38.6707049 C26.5170788,41.1797829 27.7139203,43.7764326 29.1535015,46.0277151 C30.5919589,48.2770297 32.3304695,50.4653393 32.87551,53 C32.7451498,52.6585686 33.1182496,51.8005623 33.1912963,51.437484 C33.3003044,50.8963103 33.4093125,50.3561206 33.5194444,49.8149469 C33.6790233,49.0268012 33.9498578,48.2160247 33.992562,47.4141037 C34.0903322,45.6242947 33.2036581,43.5973533 32.5428667,41.9315223 C32.0955964,40.806865 31.5775269,39.7038546 30.9886584,38.6303628 Z" id="Stroke-19"></path>
                    <path d="M27.8779191,48.2426967 C27.6531227,47.9033866 27.4157209,47.561126 27.0816778,47.3132821 C26.7465841,47.0654382 26.2938401,46.9247966 25.8862654,47.041834 C25.4671357,47.1628054 25.1730097,47.5365383 25.0637628,47.9338753 C24.954516,48.3312124 25.0028367,48.7521536 25.08057,49.1553917 C25.9818564,53.8044318 30.65636,57.302768 31.2025941,62 C31.0901959,61.0332121 31.330749,59.9415187 31.6248751,59.0199722 C31.8874877,58.2007104 32.1437975,57.7079731 31.9053453,56.8493711 C31.3696157,54.9197293 30.5660212,53.0284443 29.6374232,51.2355101 C29.1058954,50.2106953 28.5186937,49.2114516 27.8779191,48.2426967 Z" id="Stroke-21"></path>
                    <path d="M29.7820389,71.2463492 C31.6460576,68.1589266 32.3461495,66.7360875 35.0346565,64.367978 C36.0577935,63.4671097 37.1600043,62.6126169 38.4425417,62.1804369 C39.1165971,61.9544798 39.927585,61.8745561 40.4724224,62.3392976 C41.002795,62.7912118 41.085726,63.6072229 40.9295071,64.2939746 C40.720251,65.211617 40.1686635,66.0128274 39.5129301,66.6749113 C38.8591253,67.3369952 38.099246,67.8767268 37.3654031,68.4460598 C32.9122017,71.9064597 29.4291001,76.4808578 26,81 C27.2237143,77.6471517 28.559289,74.5991975 29.7820389,71.2463492 Z" id="Stroke-23"></path>
                    <path d="M24.8222266,55.4244261 C24.620672,55.0458985 24.4079761,54.6614719 24.0828553,54.3763472 C23.7577345,54.0902394 23.2928421,53.9171982 22.8725146,54.0400968 C22.4562384,54.1620121 22.1665669,54.5503716 22.0612318,54.9593779 C21.9558967,55.3683843 22.0045129,55.7990209 22.072373,56.216876 C22.9616442,61.6981515 26.9775447,66.4587499 27.2631648,72 C27.2429081,71.6185229 27.8009815,70.84672 27.9498686,70.4681924 C28.1676286,69.9117078 28.3570292,69.3463744 28.5160447,68.7721923 C28.7692541,67.8617599 29.1227343,66.7782862 28.9576418,65.8285262 C28.5656738,63.5730919 27.5204255,61.2478512 26.613936,59.1487439 C26.0670038,57.8843636 25.4704426,56.6425966 24.8222266,55.4244261 Z" id="Stroke-25"></path>
                    <path d="M37.9412216,74.2813634 C38.8431143,73.7217539 39.7959202,73.1772418 40.855748,73.0323069 C41.9166148,72.8863656 43.1167139,73.2325988 43.6757211,74.1173053 C44.1329017,74.8439924 44.072637,75.7961338 43.7068925,76.5691196 C43.3421871,77.3431119 42.7094076,77.9681434 42.0485738,78.5287594 C39.8509897,80.3907695 37.2325917,81.7102804 34.7357622,83.1767392 C29.2610244,86.390468 24.2787949,90.3892604 20,95 C20.3293778,94.6447083 20.3376902,92.9316591 20.5454996,92.383121 C20.8499403,91.5769209 21.2811447,90.8029286 21.7559891,90.0782544 C22.5924218,88.8040356 23.5576964,87.5741025 24.4949166,86.3683251 C26.8473186,83.3418039 29.5550747,80.5729446 32.5464905,78.1322016 C34.2567616,76.7372038 36.0584688,75.4488941 37.9412216,74.2813634 Z" id="Stroke-27"></path>
                    <path d="M19.9407763,151 C21.2562364,142.1462 20.9883645,133.459004 20.9564987,124.557603 C20.9256287,115.899166 21.037159,107.546169 19.5424538,98.9581423 C18.8882091,95.195674 17.172435,91.1019817 17.1445524,87.305796 C17.1196573,83.6772058 16.3339661,80.2370365 15.6707592,76.6510889 C14.268664,69.0696261 14.3463369,61.7549277 14.1551421,54.1377642 C14.0595447,50.3663707 13.9928257,46.7675312 13.3087068,43.094315 C12.6016843,39.2911875 13.2997445,34.7829691 13.5228051,30.937199 C13.6403102,28.9161367 13.8195554,26.803839 14.901001,25.0892087 C15.1071328,24.762943 15.4407279,25.413491 15.6687676,25.725873 C15.8958114,26.0372634 15.9296688,26.4458393 15.9436101,26.8316063 C16.0850146,30.6029998 14.0286747,34.5092629 13.1573442,38.1824791" id="Stroke-29"></path>
                    <path d="M16.9579693,37.7023175 C17.3400052,37.2908639 17.86905,36.8643801 18.400904,37.0409857 C18.8896852,37.2025611 19.0910032,37.828196 18.9617851,38.3279525 C18.8335035,38.8267695 18.4692584,39.226011 18.1171861,39.6017677 C16.7444786,41.0681583 15.3727075,42.5336094 14,44 C14.1779089,42.8821238 14.1750998,41.6130055 14.75939,40.636038 C15.3876893,39.5839193 16.125543,38.5994367 16.9579693,37.7023175 Z" id="Stroke-31"></path>
                    <path d="M11,43 C9.40752926,41.4421614 8.35555102,39.410747 8.03744363,37.2783031 C7.9949004,36.9977659 7.96686054,36.7027959 8.07805309,36.4393975 C8.18924564,36.1750972 8.48124695,35.9568013 8.78001651,36.0073161 C9.0749185,36.0569288 9.25669415,36.3284455 9.40076102,36.5738028 C9.78945151,37.2368089 10.1771751,37.8989128 10.5658656,38.5619189 L10.9429534,42.8222963" id="Stroke-33"></path>
                    <path d="M14,56 C14.0728,54.0572962 14.9542936,52.2777354 15.9454257,50.6973493 C16.9356808,49.1159624 18.0697815,47.6236536 18.7732222,45.8531007 C18.9065426,45.5178066 19.0258293,45.1584915 18.9951306,44.7931711 C18.9653089,44.4268498 18.7434005,44.056525 18.4241332,44.0064811 C18.1329333,43.9594399 17.8636611,44.1766304 17.6391215,44.3938208 C15.6700138,46.2974904 14.3982071,49.1119589 14.1815614,52.0465326 L14,56 Z" id="Stroke-35"></path>
                    <path d="M13,55 C12.204505,53.1204049 10.4427309,51.7080095 8.89780772,50.2259267 C7.35288458,48.7438439 5.9079601,46.9457144 6.00458802,44.9434303 C6.0461605,44.0973672 6.54952455,43.1256705 7.51130943,43.0108336 C8.06298744,42.9440908 8.61578902,43.1933948 8.99780638,43.5477206 C9.38094732,43.9010648 9.62476428,44.3486342 9.86296334,44.789333 C10.8034002,46.5324979 11.7449606,48.2746813 12.6865211,50.0178462 L13,55 Z" id="Stroke-37"></path>
                    <path d="M14.6469167,74 C18.3770742,68.1052102 20.257485,61.097921 19.9716151,54.1625312 C19.2139114,53.7738851 18.2376013,54.1265815 17.6658615,54.7513301 C17.0931324,55.3760787 16.8310026,56.2097246 16.5846994,57.014222 C15.7231329,59.8299631 14.8615665,62.6437608 14,65.4595019 L14.6469167,74 Z" id="Stroke-39"></path>
                    <path d="M14,66 C11.3021807,63.3506366 8.52080063,60.573373 7.28529488,57.0517873 C7.09230929,56.5036431 6.93811976,55.9228027 7.02466485,55.3496554 C7.11220471,54.7765082 7.49220728,54.2120159 8.06619022,54.0485343 C8.56755487,53.9062092 9.11965284,54.0918089 9.52452469,54.4110788 C9.92939654,54.7313104 10.2129063,55.1679024 10.4804997,55.6016094 C11.6712408,57.5287688 12.7008289,59.5492089 13.5573268,61.6360033 L14,66 Z" id="Stroke-41"></path>
                    <path d="M19.6699136,65.3856472 C20.0273782,64.7768167 20.4964214,64.1205448 21.2175494,64.0138018 C22.1411718,63.8764195 22.9346193,64.788677 22.9945411,65.6811672 C23.0544629,66.5726691 22.610215,67.4157412 22.1948948,68.2153255 C19.9281973,72.5947542 18.208028,77.2321453 17.0850106,82 C16.5994373,79.8849069 15.746068,77.7026052 16.0725386,75.5361174 C16.413473,73.2658515 17.0364533,71.0341318 17.9197834,68.9022366 C18.4208538,67.6944591 19.0045749,66.5183092 19.6699136,65.3856472 Z" id="Stroke-43"></path>
                    <path d="M21.6240807,73.5426339 C21.9013017,73.1031728 22.1994811,72.6637117 22.6138837,72.3563825 C23.0273336,72.0510109 23.5789178,71.8953888 24.0561953,72.078416 C24.5896791,72.2829759 24.9154853,72.866314 24.9831234,73.4457371 C25.0507616,74.0251602 24.9040535,74.6084983 24.7392451,75.1673675 C23.0444813,80.9273421 19.3034261,86.0315506 18.5594067,92 C18.5594067,89.4894928 17.8430141,87.0230297 18.0316387,84.5095862 C18.2183581,82.0294205 18.7909005,79.5815536 19.716876,77.2834364 C20.2408333,75.9807131 20.8791086,74.7269277 21.6240807,73.5426339 Z" id="Stroke-45"></path>
                    <path d="M9.20704253,66.9941483 C8.5974562,66.4004139 7.80008707,65.8016732 7.010267,66.0629965 C6.25064316,66.3143073 5.89111933,67.3015286 6.02888962,68.1335578 C6.1666599,68.9645858 6.67055945,69.6674553 7.16974083,70.325269 C9.54203193,73.4451284 12.1643855,76.351724 15,79 C14.8650606,78.8748452 14.946213,77.5371905 14.9141295,77.266856 C14.8424134,76.6510943 14.7263467,76.0403388 14.5668729,75.4425994 C14.2988813,74.4363546 13.9119922,73.3830516 13.4647106,72.4579072 C12.4776714,70.4163818 10.785739,68.5320508 9.20704253,66.9941483 Z" id="Stroke-47"></path>
                    <path d="M7.2513425,75.9854267 C6.89601764,75.6754722 6.53382185,75.3614259 6.10684308,75.1691109 C5.68182743,74.9778188 5.17534227,74.9236024 4.76014222,75.1394453 C4.15157478,75.4545146 3.9081478,76.2708304 4.03084285,76.9674608 C4.1535379,77.6651142 4.56186702,78.2655871 4.97804863,78.8261649 C7.87855959,82.7410029 11.6919217,85.9162464 15.9970456,88 C15.8164385,87.9243015 15.9990087,85.1684684 16,84.8145269 C16.0009718,84.1363096 15.9283364,83.6739353 15.4650399,83.1675739 C13.9377319,81.5032308 11.9844267,80.1140617 10.2892719,78.6348729 C9.27630159,77.7520651 8.26431282,76.8682345 7.2513425,75.9854267 Z" id="Stroke-49"></path>
                    <path d="M16.859631,93.229582 C13.6122944,87.9853284 8.4159634,83.9918794 2.52849969,82.21536 C2.12961736,82.0943464 1.71987437,81.9832519 1.30322006,82.0020983 C0.886565739,82.0189609 0.457076101,82.1856026 0.214192305,82.5258293 C-0.035602818,82.8739914 -0.049425473,83.3511025 0.0828770823,83.7587794 C0.215179638,84.1664564 0.475835418,84.5195781 0.747351856,84.8508776 C2.90664804,87.4814357 5.93874615,89.2073674 8.89975633,90.8757681 C11.9338291,92.5838454 14.9669146,94.2919227 18,96" id="Stroke-51"></path>
                </g>
            </g>
        </g>
    </g>
</svg>