<?xml version="1.0" encoding="UTF-8"?>
<svg width="117px" height="111px" viewBox="0 0 117 111" version="1.1" xmlns="http://www.w3.org/2000/svg" xmlns:xlink="http://www.w3.org/1999/xlink">
    <!-- Generator: Sketch 60.1 (88133) - https://sketch.com -->
    <title>Group</title>
    <desc>Created with Sketch.</desc>
    <g id="Pages" stroke="none" stroke-width="1" fill="none" fill-rule="evenodd">
        <g id="Home" transform="translate(-658.000000, -22.000000)">
            <g id="Group" transform="translate(660.000000, 23.000000)">
                <g id="Group-53" transform="translate(45.000000, 0.000000)" stroke="#222222" stroke-width="0.5">
                    <path d="M25.2238367,5.97753813 C25.1852901,5.99702802 25.1453667,6.01164545 25.1033784,6.0213904 C23.8292742,6.31582708 24.1851423,2.56889406 24.1424657,1.77189641 C24.1218157,1.38418664 24.103919,0.981163379 24.2484689,0.621296321 C24.3923305,0.260733194 24.748887,-0.0441445067 25.1302234,0.00527630784 C25.6836431,0.0776673602 25.9011563,0.766078425 25.9520929,1.32919728 C26.0842529,2.79859643 25.9341963,4.13365449 25.6099915,5.55363283 C25.1777184,7.4420648 25.3732049,9.44256369 25.3332816,11.3915536 C25.23898,15.9368764 24.9168402,20.4773267 24.3703039,24.9892382 C23.2779195,34.0137574 21.287949,42.9276018 18.4293023,51.5490977 C18.1725541,52.3245173 17.9082342,53.0978486 17.6370311,53.8690917 C14.3867229,63.1079998 10.148657,71.9675509 6.88527055,81.2015865 C3.62119576,90.4363181 1.32629374,100.231384 2.17913825,110" id="Stroke-1"></path>
                    <path d="M27.1467486,9.39728821 C27.2442045,9.22039587 27.3674131,9.03211046 27.5436418,9.00332798 C27.7612766,8.96854914 27.9551786,9.21200098 27.9910302,9.46984405 C28.0273869,9.72708749 27.9470993,9.9855302 27.8602474,10.2253842 C27.5890875,10.9719299 26.775608,13.0826453 26,12.9974971 C26.032822,11.7628485 26.5837258,10.4172674 27.1467486,9.39728821 Z" id="Stroke-3"></path>
                    <path d="M29.7049975,14.4854777 C29.9195485,14.2213075 30.2099856,13.9406268 30.5356063,14.0109764 C30.9564297,14.1021438 31.0606007,14.6886303 30.9695373,15.1258032 C30.7687839,16.0992128 30.0975361,16.8816733 29.4511237,17.6160377 C28.4984072,18.6971253 27.98859,19.954805 27,21 C27.4125449,20.0122333 27,19.5642926 27.6677984,17.8457509 C28.1465713,16.6139139 28.8799077,15.4990871 29.7049975,14.4854777 Z" id="Stroke-5"></path>
                    <path d="M24.0264095,7.99867385 C23.9092181,7.51516737 23.7063867,6.94028958 23.3989845,7.00501092 C23.2344658,7.04003659 23.1014985,7.27074913 23.0447058,7.53344163 C22.9874623,7.79613413 22.9937726,8.08623802 23.0163094,8.36339764 C23.2164363,10.8372757 24.5474607,12.6243461 25,15 C24.8097893,13.9888242 25.1041201,12.7537888 24.9152616,11.6946431 C24.6903441,10.4375262 24.3211911,9.21391219 24.0264095,7.99867385 Z" id="Stroke-7"></path>
                    <path d="M23.383813,15.1904699 C23.2772829,14.8335053 23.1526294,14.4731346 22.950178,14.2340229 C22.7481686,13.9942299 22.4497959,13.9070324 22.2376197,14.1243448 C22.0152768,14.3511944 21.9578124,14.8348678 22.0285378,15.2313437 C22.0983791,15.6271384 22.26812,15.9602599 22.4259261,16.2913377 C23.1269915,17.7191959 23.5902428,19.3296239 23.9836527,21 C24.0459795,18.9597159 23.947406,17.0808834 23.383813,15.1904699 Z" id="Stroke-9"></path>
                    <path d="M24,27.9212929 C25.1834671,25.7940827 26.7311427,24.223966 28.1030225,22.1750538 C28.4840535,21.605488 29.039198,20.959703 29.827335,21.0019701 C30.549864,21.0407726 31.0335126,21.6997227 30.9981852,22.2949259 C30.9628578,22.8908219 30.556593,23.4236638 30.1503282,23.9170103 C28.3124634,26.1509274 26.3307658,28.1035263 24,30 L24,27.9212929" id="Stroke-11"></path>
                    <path d="M24,29 C23.8604068,27.4563745 22.8738131,26.0696692 22.1104337,24.7320448 C21.34638,23.393729 20.5142155,22.0678563 20.1082488,20.5746941 C20.0199071,20.2504844 19.9524708,19.9034624 20.0428355,19.5792527 C20.1338746,19.2557342 20.4285714,18.9688535 20.7556376,19.0027262 C21.0301035,19.0303773 21.2384818,19.2605732 21.4117932,19.4797085 C22.9972216,21.4871821 23.7423932,23.6654016 24,26.2348848 L24,29 Z" id="Stroke-13"></path>
                    <path d="M27.2508022,30.1060988 C27.9793132,29.2682334 28.7811506,28.426147 29.816546,28.0779158 C30.2293463,27.9393268 30.7983045,27.9562108 30.961252,28.3726812 C31.1099416,28.7511628 30.8023782,29.1437144 30.519257,29.4286308 C29.2340087,30.724473 27.9480816,32.0203152 26.6628334,33.3161574 C26.1746699,33.8079021 25.2920377,34.6978263 24,36 C24.2376317,34.9721903 24.2973791,33.8451875 24.924048,33.0009906 C25.6634222,32.0055418 26.4394595,31.0389364 27.2508022,30.1060988 Z" id="Stroke-15"></path>
                    <path d="M21.6394453,41.9493707 C21.8332385,41.1659608 22.4262315,40.5148486 23.0177728,39.9110782 C24.5318282,38.3656594 26.1605628,36.9097362 27.8887344,35.5556304 C28.3242249,35.2145098 28.9019757,34.8571763 29.4361774,35.0582169 C29.8716679,35.2216435 30.0552998,35.7093292 29.9856213,36.1269748 C29.8709421,36.8040278 29.2670619,37.3183027 28.7038275,37.7839387 C25.9718502,40.0427274 23.3966496,42.4539178 21,45 C21.3048434,43.7866226 21.6089609,42.5738936 21.9130785,41.3605162" id="Stroke-17"></path>
                    <path d="M21.2792334,27.1208745 C21.152084,26.84217 21.0159443,26.5621126 20.8104504,26.3422608 C20.6043143,26.122409 20.3140542,25.968851 20.0225097,26.0053802 C19.5222604,26.0676152 19.226863,26.6317887 19.1112726,27.1486096 C18.724045,28.8736007 19.4079545,30.6587974 20.2305723,32.2065541 C21.0525479,33.7529579 22.0459826,35.2574207 22.3574343,37 C22.2829427,36.7652659 22.4961427,36.1753866 22.5378836,35.9257702 C22.6001739,35.5537133 22.6624643,35.1823329 22.7253968,34.810276 C22.8165847,34.2684258 22.9713473,33.711017 22.9957497,33.1596963 C23.0516184,31.9292026 22.5449475,30.5356804 22.1673524,29.3904216 C21.9117693,28.6172197 21.6157297,27.8589001 21.2792334,27.1208745 Z" id="Stroke-19"></path>
                    <path d="M18.6445252,33.8284645 C18.5160701,33.6022577 18.380412,33.374084 18.1895302,33.2088547 C17.9980481,33.0436255 17.7393372,32.9498644 17.5064374,33.0278893 C17.2669347,33.108537 17.0988627,33.3576922 17.0364359,33.6225836 C16.9740091,33.8874749 17.001621,34.1681024 17.04604,34.4369278 C17.5610608,37.5362878 20.2322057,39.868512 20.5443395,43 C20.480112,42.3554747 20.6175709,41.6276792 20.7856429,41.0133148 C20.9357072,40.4671403 21.08217,40.1386488 20.9459116,39.5662474 C20.6397804,38.2798195 20.1805836,37.0189629 19.6499561,35.8236734 C19.3462259,35.1404635 19.0106821,34.4743011 18.6445252,33.8284645 Z" id="Stroke-21"></path>
                    <path d="M19.5213593,50.3264495 C20.7640384,48.2140024 21.2307663,47.2404809 23.0231044,45.6201955 C23.7051957,45.0038119 24.4400028,44.4191589 25.2950278,44.1234568 C25.7443981,43.9688546 26.2850567,43.91417 26.6482816,44.232151 C27.0018633,44.5413555 27.0571507,45.0996788 26.9530048,45.5695616 C26.8135007,46.1974222 26.4457757,46.7456187 26.0086201,47.1986235 C25.5727502,47.6516283 25.066164,48.0209184 24.5769354,48.410462 C21.6081345,50.778104 19.2860667,53.9079553 17,57 C17.8158095,54.7059459 18.7061927,52.6205036 19.5213593,50.3264495 Z" id="Stroke-23"></path>
                    <path d="M17.6127009,38.0287522 C17.4975268,37.7553712 17.3759863,37.4777297 17.190203,37.2718063 C17.0044197,37.0651729 16.7387669,36.9401987 16.4985797,37.0289588 C16.2607076,37.1170088 16.0951811,37.3974906 16.0349896,37.6928841 C15.9747981,37.9882776 16.0025788,38.2992929 16.041356,38.6010771 C16.549511,42.5597761 18.8443112,45.9979861 19.0075228,50 C18.9959475,49.7244888 19.3148466,49.1670755 19.3999249,48.8936945 C19.5243592,48.4917889 19.6325881,48.0834926 19.7234541,47.6688056 C19.8681452,47.011271 20.0701339,46.2287623 19.9757953,45.5428244 C19.7518136,43.9138997 19.1545289,42.2345592 18.6365349,40.7185373 C18.3240022,39.8053737 17.98311,38.908542 17.6127009,38.0287522 Z" id="Stroke-25"></path>
                    <path d="M25.7083653,50.9319007 C26.347206,50.5249119 27.0221102,50.1289031 27.7728215,50.023496 C28.5242688,49.9173568 29.374339,50.1691628 29.7703025,50.8125856 C30.0941387,51.3410854 30.0514512,52.0335519 29.7923822,52.5957234 C29.5340492,53.1586269 29.0858304,53.6131952 28.6177398,54.0209159 C27.0611177,55.3751051 25.2064191,56.3347494 23.4378315,57.4012649 C19.5598923,59.7385222 16.030813,62.6467349 13,66 C13.2333093,65.7416061 13.2391972,64.495752 13.3863955,64.0968152 C13.6020411,63.5104879 13.9074775,62.9475844 14.2438256,62.4205487 C14.8362988,61.4938441 15.5200349,60.5993473 16.1838993,59.7224183 C17.850184,57.5213119 19.7681779,55.507596 21.8870974,53.7325103 C23.0985395,52.7179664 24.3747487,51.7810139 25.7083653,50.9319007 Z" id="Stroke-27"></path>
                    <path d="M14.2055823,105 C15.1921773,98.7461255 14.9912734,92.6099315 14.967374,86.3224341 C14.9442215,80.2065539 15.0278693,74.3064213 13.9068404,68.2402751 C13.4161569,65.5826586 12.1293262,62.6910823 12.1084143,60.0096496 C12.0897429,57.4465977 11.5004746,55.0166369 11.0030694,52.4837056 C9.95149799,47.1285454 10.0097527,41.961814 9.86635656,36.5814366 C9.79465851,33.9175158 9.74461924,31.3754784 9.23153008,28.780905 C8.70126325,26.0945689 9.22480838,22.9101925 9.39210383,20.1937358 C9.48023269,18.76616 9.61466653,17.2741403 10.4257507,16.0630125 C10.5803496,15.832555 10.830546,16.292069 11.0015757,16.5127198 C11.1718585,16.7326702 11.1972516,17.0212674 11.2077076,17.2937537 C11.3137609,19.9576744 9.77150601,22.7168603 9.11800817,25.3114337" id="Stroke-29"></path>
                    <path d="M12.3663754,26.4013243 C12.6720042,26.166208 13.09524,25.9225029 13.5207232,26.0234204 C13.9117482,26.1157492 14.0728025,26.4732549 13.9694281,26.75883 C13.8668028,27.0438683 13.5754068,27.2720063 13.2937489,27.4867244 C12.1955829,28.3246619 11.098166,29.1620625 10,30 C10.1423271,29.3612136 10.1400798,28.6360031 10.607512,28.077736 C11.1101514,27.4765253 11.7004344,26.9139638 12.3663754,26.4013243 Z" id="Stroke-31"></path>
                    <path d="M9,28 C7.93835284,27.1098065 7.23703402,25.9489983 7.02496242,24.7304589 C6.99660026,24.5701519 6.97790702,24.4015976 7.05203539,24.2510843 C7.12616376,24.1000555 7.3208313,23.975315 7.52001101,24.0041806 C7.71661233,24.0325307 7.8377961,24.1876832 7.93384068,24.3278873 C8.19296767,24.7067479 8.45145007,25.0850931 8.71057707,25.4639536 L8.96196892,27.8984551" id="Stroke-33"></path>
                    <path d="M10,40 C10.05824,38.7048641 10.7634349,37.5184903 11.5563406,36.4648996 C12.3485446,35.4106416 13.2558252,34.415769 13.8185778,33.2354005 C13.9252341,33.0118711 14.0206635,32.7723277 13.9961044,32.5287807 C13.9722471,32.2845665 13.7947204,32.0376833 13.5393066,32.0043208 C13.3063466,31.9729599 13.0909289,32.1177536 12.9112972,32.2625472 C11.336011,33.5316603 10.3185657,35.4079726 10.1452491,37.3643551 L10,40 Z" id="Stroke-35"></path>
                    <path d="M10,38 C9.54543145,36.7469366 8.53870335,35.8053397 7.65589013,34.8172845 C6.7730769,33.8292293 5.94740577,32.6304762 6.00262173,31.2956202 C6.02637743,30.7315781 6.31401403,30.0837803 6.86360539,30.0072224 C7.17884996,29.9627272 7.49473659,30.1289299 7.71303222,30.3651471 C7.9319699,30.6007099 8.07129388,30.8990895 8.20740762,31.1928887 C8.74480011,32.3549986 9.28283464,33.5164542 9.82086917,34.6785641 L10,38 Z" id="Stroke-37"></path>
                    <path d="M10.4312778,49 C12.9180495,45.1683866 14.1716567,40.6136486 13.9810767,36.1056453 C13.475941,35.8530253 12.8250675,36.082278 12.4439076,36.4883646 C12.0620883,36.8944512 11.887335,37.436321 11.7231329,37.9592443 C11.1487553,39.789476 10.5743776,41.6184445 10,43.4486762 L10.4312778,49 Z" id="Stroke-39"></path>
                    <path d="M10,47 C8.45838897,45.2337578 6.86902893,43.3822486 6.16302565,41.0345248 C6.05274816,40.6690954 5.96463986,40.2818684 6.0140942,39.8997703 C6.06411698,39.5176722 6.2812613,39.141344 6.60925155,39.0323562 C6.89574564,38.9374728 7.2112302,39.0612059 7.44258554,39.2740525 C7.67394088,39.4875403 7.83594647,39.7786016 7.988857,40.0677396 C8.66928045,41.3525126 9.25761652,42.6994726 9.74704391,44.0906689 L10,47 Z" id="Stroke-41"></path>
                    <path d="M14.0970935,44.0007452 C14.301359,43.5610343 14.5693836,43.0870601 14.9814568,43.0099679 C15.509241,42.9107475 15.9626396,43.5696001 15.9968806,44.2141763 C16.0311217,44.8580388 15.7772657,45.4669242 15.5399399,46.0444017 C14.2446842,49.2073225 13.2617303,52.5565494 12.620006,56 C12.3425356,54.4724328 11.854896,52.896326 12.0414506,51.3316403 C12.2362703,49.6920039 12.592259,48.0802063 13.0970191,46.5405042 C13.383345,45.6682205 13.7168999,44.8187789 14.0970935,44.0007452 Z" id="Stroke-43"></path>
                    <path d="M15.0709032,51.002712 C15.2293153,50.7170623 15.3997035,50.4314126 15.636505,50.2316486 C15.8727621,50.0331571 16.187953,49.9320027 16.460683,50.0509704 C16.7655309,50.1839343 16.9517059,50.5631041 16.9903563,50.9397291 C17.0290066,51.3163541 16.9451734,51.6955239 16.8509972,52.0587889 C15.8825608,55.8027723 13.7448149,59.1205079 13.3196609,63 C13.3196609,61.3681703 12.9102938,59.7649693 13.0180793,58.131231 C13.124776,56.5191233 13.4519432,54.9280099 13.981072,53.4342336 C14.2804762,52.5874635 14.6452049,51.772503 15.0709032,51.002712 Z" id="Stroke-45"></path>
                    <path d="M6.49436641,46.6882565 C6.02024371,46.2772096 5.40006772,45.8626968 4.78576322,46.0436129 C4.19494468,46.2175974 3.91531504,46.9010582 4.0224697,47.4770785 C4.12962437,48.0524056 4.52154624,48.5390075 4.90979842,48.994417 C6.75491372,51.1543197 8.79452208,53.1665781 11,55 C10.8950471,54.9133544 10.9581656,53.9872857 10.9332118,53.8001311 C10.8774327,53.3738345 10.7871585,52.9510038 10.6631233,52.5371842 C10.4546855,51.8405532 10.1537717,51.1113434 9.805886,50.4708588 C9.03818886,49.0574951 7.72224147,47.7529582 6.49436641,46.6882565 Z" id="Stroke-47"></path>
                    <path d="M5.16756167,52.6822185 C4.93067842,52.4676346 4.68921457,52.2502179 4.40456205,52.1170768 C4.12121829,51.9846438 3.78356151,51.9471093 3.50676148,52.096539 C3.10104985,52.3146639 2.9387652,52.8798057 3.0205619,53.3620883 C3.1023586,53.8450791 3.37457802,54.2607911 3.65203242,54.6488834 C5.58570639,57.3591558 8.12794781,59.5574014 10.9980304,61 C10.8776257,60.9475934 10.9993391,59.0397089 11,58.7946725 C11.0006479,58.3251374 10.9522242,58.0050321 10.6433599,57.6544743 C9.62515459,56.5022367 8.32295114,55.5405043 7.19284794,54.5164504 C6.51753439,53.9052759 5.84287522,53.2933931 5.16756167,52.6822185 Z" id="Stroke-49"></path>
                    <path d="M12.1764001,64.02113 C9.83110148,60.2752346 6.07819579,57.422771 1.82613867,56.1538286 C1.53805698,56.0673903 1.24213149,55.9880371 0.941214484,56.0014988 C0.640297478,56.0135435 0.330110517,56.1325733 0.154694443,56.3755924 C-0.0257131463,56.6242796 -0.0356961749,56.9650732 0.0598556705,57.256271 C0.155407516,57.5474689 0.343658913,57.7996986 0.539754118,58.0363412 C2.09924581,59.9153112 4.28909444,61.1481196 6.42760179,62.3398344 C8.61887658,63.5598896 10.8094383,64.7799448 13,66" id="Stroke-51"></path>
                </g>
                <text id="AW" font-family="ModernoFB-SemiboldItalic, ModernoFB" font-size="16" font-style="italic" font-weight="500" fill="#222222">
                    <tspan x="0" y="50">AW</tspan>
                </text>
                <text id="JK" font-family="ModernoFB-SemiboldItalic, ModernoFB" font-size="16" font-style="italic" font-weight="500" fill="#222222">
                    <tspan x="96" y="50">JK</tspan>
                </text>
            </g>
        </g>
    </g>
</svg>